<?xml version="1.0" encoding="utf-8"?>
<!-- Generator: Adobe Illustrator 21.1.0, SVG Export Plug-In . SVG Version: 6.00 Build 0)  -->
<svg version="1.1" id="Capa_1" xmlns="http://www.w3.org/2000/svg" xmlns:xlink="http://www.w3.org/1999/xlink" x="0px" y="0px"
	 viewBox="0 0 60.9 60.9" style="enable-background:new 0 0 60.9 60.9;" xml:space="preserve">
<g>
	<path fill="white" d="M49.6,41.5H39.5v6h10.1c3,0,5.3,1.5,5.3,2.9V52c0,1.3-2.3,2.9-5.3,2.9H11.3c-3,0-5.3-1.5-5.3-2.9v-1.6
		c0-1.3,2.3-2.9,5.3-2.9h10.1v-6H11.3C5,41.5,0,45.4,0,50.3v1.6c0,5,5,8.9,11.3,8.9h38.2c6.4,0,11.3-3.9,11.3-8.9v-1.6
		C60.9,45.4,55.9,41.5,49.6,41.5z"/>
	<path fill="white" d="M41.6,25.2c1.2-1.1,1.2-3,0-4.2l-9-9c-0.6-0.6-1.3-0.9-2.1-0.9l0,0l0,0c-0.7,0-1.5,0.3-2.1,0.9l-9,9c-1.2,1.1-1.2,3,0,4.2
		c0.6,0.6,1.4,0.9,2.1,0.9s1.5-0.3,2.1-0.9l4-4v20.7c0,1.7,1.3,3,3,3s3-1.3,3-3V21.3l3.8,3.8c0.6,0.6,1.3,0.9,2.1,0.9
		S41.1,25.7,41.6,25.2z"/>
</g>
</svg>
