<svg id="beta" xmlns="http://www.w3.org/2000/svg" width="36" height="16" viewBox="0 0 36 16">
  <metadata><?xpacket begin="﻿" id="W5M0MpCehiHzreSzNTczkc9d"?>
<x:xmpmeta xmlns:x="adobe:ns:meta/" x:xmptk="Adobe XMP Core 5.6-c138 79.159824, 2016/09/14-01:09:01        ">
   <rdf:RDF xmlns:rdf="http://www.w3.org/1999/02/22-rdf-syntax-ns#">
      <rdf:Description rdf:about=""/>
   </rdf:RDF>
</x:xmpmeta>
                                                                                                    
                                                                                                    
                                                                                                    
                                                                                                    
                                                                                                    
                                                                                                    
                                                                                                    
                                                                                                    
                                                                                                    
                                                                                                    
                                                                                                    
                                                                                                    
                                                                                                    
                                                                                                    
                                                                                                    
                                                                                                    
                                                                                                    
                                                                                                    
                                                                                                    
                                                                                                    
                           
<?xpacket end="w"?></metadata>
<defs>
    <style>
      .cls-1 {
        fill: #ff0400;
      }

      .cls-2 {
        fill: #fff;
        fill-rule: evenodd;
      }
    </style>
  </defs>
  <rect class="cls-1" width="36" height="16"/>
  <path id="beta-2" data-name="beta" class="cls-2" d="M191.851,29.605h-0.07q0.069-.891.07-1.295V26.189h-1.787v9.117h1.365l0.3-.721h0.123a2.363,2.363,0,0,0,3.653-.053,4.082,4.082,0,0,0,.677-2.514,4.157,4.157,0,0,0-.656-2.482,2.12,2.12,0,0,0-1.817-.905,2.067,2.067,0,0,0-1.857.973h0Zm2.18,0.94a2.606,2.606,0,0,1,.328,1.45,2.751,2.751,0,0,1-.325,1.474,1,1,0,0,1-.876.507,1.119,1.119,0,0,1-.994-0.457,2.761,2.761,0,0,1-.313-1.512V31.814a2.341,2.341,0,0,1,.316-1.345,1.129,1.129,0,0,1,.967-0.407A1.03,1.03,0,0,1,194.031,30.546Zm7.388-.281a1.489,1.489,0,0,1,.346,1.022h-2.508a1.665,1.665,0,0,1,.369-1.022,1.134,1.134,0,0,1,.891-0.36A1.168,1.168,0,0,1,201.419,30.264Zm0.651,5.045a4.215,4.215,0,0,0,1-.349V33.578a5.594,5.594,0,0,1-1.1.392,4.914,4.914,0,0,1-1.119.123,1.59,1.59,0,0,1-1.184-.428,1.724,1.724,0,0,1-.451-1.189h4.225V31.609a2.992,2.992,0,0,0-.774-2.186,2.884,2.884,0,0,0-2.162-.791,2.929,2.929,0,0,0-2.276.9,3.635,3.635,0,0,0-.824,2.546,3.3,3.3,0,0,0,.891,2.473,3.382,3.382,0,0,0,2.473.873A6.319,6.319,0,0,0,202.07,35.309Zm5.142-1.491A0.7,0.7,0,0,1,207,33.256V30.1h1.834V28.756H207V27.361h-1.143l-0.515,1.383-0.985.6V30.1h0.856v3.158a2.36,2.36,0,0,0,.489,1.626,2.009,2.009,0,0,0,1.562.542,4.007,4.007,0,0,0,1.64-.3v-1.33a3.862,3.862,0,0,1-1.125.205A0.842,0.842,0,0,1,207.212,33.818Zm8.6,1.488V30.941a2.125,2.125,0,0,0-.7-1.746,3.126,3.126,0,0,0-2.022-.574,5.327,5.327,0,0,0-2.508.592l0.592,1.207a4.645,4.645,0,0,1,1.846-.475,0.89,0.89,0,0,1,1.019,1v0.287l-1.136.035a4.231,4.231,0,0,0-2.2.548,1.729,1.729,0,0,0-.729,1.538,2.071,2.071,0,0,0,.542,1.535,2.012,2.012,0,0,0,1.485.539,3,3,0,0,0,1.245-.22,2.636,2.636,0,0,0,.929-0.788h0.047l0.346,0.891h1.248Zm-1.776-2.5a1.255,1.255,0,0,1-.372.949,1.373,1.373,0,0,1-.993.357,0.721,0.721,0,0,1-.867-0.756,0.883,0.883,0,0,1,.381-0.785,2.214,2.214,0,0,1,1.16-.281l0.691-.023V32.81Z" transform="translate(-185 -23)"/>
</svg>
