<svg id="beta_logo" xmlns="http://www.w3.org/2000/svg" width="166" height="69" viewBox="0 0 166 69">
  <metadata><?xpacket begin="﻿" id="W5M0MpCehiHzreSzNTczkc9d"?>
<x:xmpmeta xmlns:x="adobe:ns:meta/" x:xmptk="Adobe XMP Core 5.6-c138 79.159824, 2016/09/14-01:09:01        ">
   <rdf:RDF xmlns:rdf="http://www.w3.org/1999/02/22-rdf-syntax-ns#">
      <rdf:Description rdf:about=""/>
   </rdf:RDF>
</x:xmpmeta>
                                                                                                    
                                                                                                    
                                                                                                    
                                                                                                    
                                                                                                    
                                                                                                    
                                                                                                    
                                                                                                    
                                                                                                    
                                                                                                    
                                                                                                    
                                                                                                    
                                                                                                    
                                                                                                    
                                                                                                    
                                                                                                    
                                                                                                    
                                                                                                    
                                                                                                    
                                                                                                    
                           
<?xpacket end="w"?></metadata>
<defs>
    <style>
      .cls-1 {
        fill: #1e8bea;
      }

      .cls-1, .cls-3 {
        fill-rule: evenodd;
      }

      .cls-2 {
        fill: red;
      }

      .cls-3 {
        fill: #fff;
      }
    </style>
  </defs>
  <path id="blue" class="cls-1" d="M83.861,22.708a11.69,11.69,0,0,0-5.2-1.1,13,13,0,0,0-7.4,1.932,9.783,9.783,0,0,0-4.324,8.408,10.594,10.594,0,0,0,1.9,6.1c1.859,2.538,5.387,4.2,9.749,4.2a16.892,16.892,0,0,0,5.425-.871l-0.152-5.075a9.341,9.341,0,0,1-4.059.947,5.965,5.965,0,0,1-4.1-1.4A5.1,5.1,0,0,1,74,31.95a5.084,5.084,0,0,1,5.425-5.34,7.4,7.4,0,0,1,3.945,1.1Zm3-.644V41.8H100.67a8.394,8.394,0,0,0,4.931-1.288,4.915,4.915,0,0,0,2.086-4.242,4.422,4.422,0,0,0-1.517-3.56,5.954,5.954,0,0,0-3.035-1.212V31.419a6.161,6.161,0,0,0,2.732-1.439,4.627,4.627,0,0,0-.873-6.855,8.414,8.414,0,0,0-4.324-1.061H86.862Zm6.828,3.977h3.528a6.408,6.408,0,0,1,2.124.3,1.443,1.443,0,0,1,.834,1.288,1.81,1.81,0,0,1-.72,1.477,4.512,4.512,0,0,1-2.238.492H93.69v-3.56Zm0,7.272h3.452a4.612,4.612,0,0,1,2.731.606,2.406,2.406,0,0,1,.8,1.856A1.9,1.9,0,0,1,99.8,37.4a5.172,5.172,0,0,1-2.618.417H93.69V33.313Zm28.189-11.7a12.673,12.673,0,0,0-7.852,2.424,9.622,9.622,0,0,0-3.642,7.916,9.623,9.623,0,0,0,3.642,7.916,14.112,14.112,0,0,0,15.7,0,9.625,9.625,0,0,0,3.642-7.916,9.625,9.625,0,0,0-3.642-7.916A12.675,12.675,0,0,0,121.879,21.61Zm0,4.772a3.922,3.922,0,0,1,3.073,1.288,6.2,6.2,0,0,1,1.365,4.28,6.2,6.2,0,0,1-1.365,4.28,4.31,4.31,0,0,1-6.146,0,6.194,6.194,0,0,1-1.365-4.28,6.194,6.194,0,0,1,1.365-4.28A3.922,3.922,0,0,1,121.879,26.382Zm27.81,7.121V29.563h-7.321a4.1,4.1,0,0,1,1.517-2.613,6.138,6.138,0,0,1,3.68-1.023,11.5,11.5,0,0,1,4.666.909l0.455-4.2a14.855,14.855,0,0,0-5.8-1.023c-1.138,0-4.969.038-7.814,2.121a9.565,9.565,0,0,0-3.756,8.03,10.239,10.239,0,0,0,3.3,7.954c1.593,1.364,4.248,2.538,8.193,2.538a16.178,16.178,0,0,0,6.07-1.023l-0.228-4.318a13.43,13.43,0,0,1-4.855,1.023,6.446,6.446,0,0,1-3.946-1.136,4.437,4.437,0,0,1-1.479-3.3h7.321ZM166,15.284h-7.055l0.986,17.5h5.083ZM159.29,41.8h6.373V35.661H159.29V41.8ZM60.064,56.824L30.032,69,0,56.824H0V0H60.064V56.824h0Z"/>
  <rect id="red" class="cls-2" x="51" width="36" height="16"/>
  <path id="white" class="cls-3" d="M45.826,42A27.451,27.451,0,0,1,35.781,44.12c-4.55,0-8.095-1.3-10.222-3.363a11.079,11.079,0,0,1-3.25-7.08H38.026V26.126H22.486a10.028,10.028,0,0,1,3.072-5.9c1.773-1.652,4.727-3.127,9.395-3.127A18.664,18.664,0,0,1,45.116,19.99l1.123-8.437a32.2,32.2,0,0,0-12.231-2.3c-8.509,0-13.531,2.6-16.367,4.956-4.077,3.422-6.972,9.2-6.972,16.46,0,7.434,3.014,12.625,6.2,15.634,5.318,4.956,12.29,5.664,17.726,5.664A34.93,34.93,0,0,0,46.18,50.256ZM57.851,6.605h-0.07q0.07-.891.07-1.295V3.189H56.064v9.117h1.365l0.3-.721h0.123a2.363,2.363,0,0,0,3.653-.053,4.08,4.08,0,0,0,.677-2.514,4.154,4.154,0,0,0-.656-2.481,2.119,2.119,0,0,0-1.816-.905,2.067,2.067,0,0,0-1.857.973h0Zm2.18,0.94A2.6,2.6,0,0,1,60.359,9a2.744,2.744,0,0,1-.325,1.474,1,1,0,0,1-.876.507,1.119,1.119,0,0,1-.993-0.457,2.76,2.76,0,0,1-.313-1.512V8.814a2.338,2.338,0,0,1,.316-1.345,1.128,1.128,0,0,1,.967-0.407A1.029,1.029,0,0,1,60.031,7.546Zm7.389-.281a1.49,1.49,0,0,1,.346,1.022H65.257a1.667,1.667,0,0,1,.369-1.022,1.133,1.133,0,0,1,.891-0.36A1.171,1.171,0,0,1,67.419,7.264Zm0.65,5.045a4.2,4.2,0,0,0,1-.349V10.578a5.6,5.6,0,0,1-1.1.393,4.911,4.911,0,0,1-1.119.123,1.587,1.587,0,0,1-1.184-.428,1.72,1.72,0,0,1-.451-1.189h4.225V8.609a2.993,2.993,0,0,0-.774-2.186,2.885,2.885,0,0,0-2.162-.791,2.931,2.931,0,0,0-2.276.9,3.636,3.636,0,0,0-.823,2.546,3.305,3.305,0,0,0,.891,2.473,3.381,3.381,0,0,0,2.473.873A6.316,6.316,0,0,0,68.07,12.309Zm5.142-1.491A0.7,0.7,0,0,1,73,10.256V7.1h1.834V5.756H73V4.361H71.855L71.34,5.744l-0.984.6V7.1h0.855v3.158a2.359,2.359,0,0,0,.489,1.626,2.008,2.008,0,0,0,1.561.542,4.011,4.011,0,0,0,1.641-.3v-1.33A3.874,3.874,0,0,1,73.777,11,0.844,0.844,0,0,1,73.212,10.818Zm8.6,1.488V7.941a2.122,2.122,0,0,0-.7-1.746,3.124,3.124,0,0,0-2.021-.574,5.326,5.326,0,0,0-2.508.592L77.175,7.42a4.646,4.646,0,0,1,1.846-.475,0.891,0.891,0,0,1,1.02,1V8.228L78.9,8.263a4.227,4.227,0,0,0-2.2.548,1.729,1.729,0,0,0-.73,1.538,2.07,2.07,0,0,0,.542,1.535A2.013,2.013,0,0,0,78,12.424a3,3,0,0,0,1.245-.22,2.638,2.638,0,0,0,.929-0.788h0.047l0.346,0.891h1.248ZM80.04,9.81a1.255,1.255,0,0,1-.372.949,1.374,1.374,0,0,1-.993.357,0.721,0.721,0,0,1-.867-0.756,0.883,0.883,0,0,1,.381-0.785,2.215,2.215,0,0,1,1.16-.281l0.691-.023V9.81Z"/>
</svg>
