<svg id="elogo" xmlns="http://www.w3.org/2000/svg" width="166" height="69" viewBox="0 0 166 69">
  <metadata><?xpacket begin="﻿" id="W5M0MpCehiHzreSzNTczkc9d"?>
<x:xmpmeta xmlns:x="adobe:ns:meta/" x:xmptk="Adobe XMP Core 5.6-c138 79.159824, 2016/09/14-01:09:01        ">
   <rdf:RDF xmlns:rdf="http://www.w3.org/1999/02/22-rdf-syntax-ns#">
      <rdf:Description rdf:about=""/>
   </rdf:RDF>
</x:xmpmeta>
                                                                                                    
                                                                                                    
                                                                                                    
                                                                                                    
                                                                                                    
                                                                                                    
                                                                                                    
                                                                                                    
                                                                                                    
                                                                                                    
                                                                                                    
                                                                                                    
                                                                                                    
                                                                                                    
                                                                                                    
                                                                                                    
                                                                                                    
                                                                                                    
                                                                                                    
                                                                                                    
                           
<?xpacket end="w"?></metadata>
<defs>
    <style>
      .cls-1 {
        fill: #2296ed;
      }

      .cls-1, .cls-2 {
        fill-rule: evenodd;
      }

      .cls-2 {
        fill: #fff;
      }
    </style>
  </defs>
  <path id="mine" class="cls-1" d="M279.861,73.708a11.688,11.688,0,0,0-5.2-1.1,13,13,0,0,0-7.4,1.932,9.783,9.783,0,0,0-4.324,8.408,10.6,10.6,0,0,0,1.9,6.1c1.858,2.538,5.386,4.2,9.749,4.2a16.889,16.889,0,0,0,5.424-.871l-0.152-5.075a9.34,9.34,0,0,1-4.059.947,5.962,5.962,0,0,1-4.1-1.4A5.1,5.1,0,0,1,270,82.95a5.083,5.083,0,0,1,5.424-5.341,7.4,7.4,0,0,1,3.945,1.1Zm3-.644V92.8H296.67a8.394,8.394,0,0,0,4.931-1.288,4.915,4.915,0,0,0,2.086-4.242,4.422,4.422,0,0,0-1.517-3.56,5.954,5.954,0,0,0-3.035-1.212V82.419a6.161,6.161,0,0,0,2.732-1.439,4.627,4.627,0,0,0-.873-6.856,8.414,8.414,0,0,0-4.324-1.061H282.862Zm6.828,3.977h3.528a6.4,6.4,0,0,1,2.124.3,1.444,1.444,0,0,1,.834,1.288,1.81,1.81,0,0,1-.72,1.477,4.513,4.513,0,0,1-2.238.492H289.69v-3.56Zm0,7.272h3.452a4.613,4.613,0,0,1,2.731.606,2.406,2.406,0,0,1,.8,1.856A1.9,1.9,0,0,1,295.8,88.4a5.171,5.171,0,0,1-2.617.417h-3.49V84.313Zm28.189-11.7a12.675,12.675,0,0,0-7.852,2.424,10.424,10.424,0,0,0,0,15.832,14.112,14.112,0,0,0,15.7,0,10.424,10.424,0,0,0,0-15.832A12.675,12.675,0,0,0,317.879,72.61Zm0,4.772a3.922,3.922,0,0,1,3.073,1.288,7.392,7.392,0,0,1,0,8.56,4.31,4.31,0,0,1-6.146,0,7.392,7.392,0,0,1,0-8.56A3.922,3.922,0,0,1,317.879,77.382Zm27.81,7.121V80.563h-7.321a4.1,4.1,0,0,1,1.517-2.613,6.138,6.138,0,0,1,3.68-1.023,11.5,11.5,0,0,1,4.666.909l0.455-4.2a14.855,14.855,0,0,0-5.8-1.023c-1.138,0-4.969.038-7.814,2.121a9.565,9.565,0,0,0-3.756,8.03,10.239,10.239,0,0,0,3.3,7.954c1.593,1.364,4.248,2.538,8.193,2.538a16.178,16.178,0,0,0,6.07-1.023l-0.228-4.318a13.43,13.43,0,0,1-4.855,1.023,6.445,6.445,0,0,1-3.946-1.136,4.437,4.437,0,0,1-1.479-3.3h7.321ZM362,66.284h-7.055l0.986,17.5h5.083ZM355.29,92.8h6.373V86.661H355.29V92.8Z" transform="translate(-196 -51)"/>
  <path id="is" class="cls-1" d="M256.064,107.824L226.032,120,196,107.824h0V51h60.064v56.824h0Z" transform="translate(-196 -51)"/>
  <path id="world" class="cls-2" d="M241.825,93a27.448,27.448,0,0,1-10.044,2.124c-4.55,0-8.095-1.3-10.222-3.363a11.073,11.073,0,0,1-3.25-7.08h15.717V77.126h-15.54a10.027,10.027,0,0,1,3.073-5.9c1.772-1.652,4.727-3.127,9.394-3.127a18.661,18.661,0,0,1,10.163,2.891l1.123-8.437a32.2,32.2,0,0,0-12.231-2.3c-8.509,0-13.531,2.6-16.367,4.956-4.077,3.422-6.972,9.2-6.972,16.46,0,7.434,3.013,12.625,6.2,15.634,5.318,4.955,12.29,5.663,17.726,5.663a34.926,34.926,0,0,0,11.581-1.711Z" transform="translate(-196 -51)"/>
</svg>
