<?xml version="1.0" encoding="utf-8"?>
<!-- Generator: Adobe Illustrator 17.0.0, SVG Export Plug-In . SVG Version: 6.00 Build 0)  -->
<!DOCTYPE svg PUBLIC "-//W3C//DTD SVG 1.1//EN" "http://www.w3.org/Graphics/SVG/1.1/DTD/svg11.dtd">
<svg version="1.1" id="groups" xmlns="http://www.w3.org/2000/svg" xmlns:xlink="http://www.w3.org/1999/xlink" x="0px" y="0px"
	 width="612px" height="612px" viewBox="0 0 612 612" enable-background="new 0 0 612 612" xml:space="preserve">
<path d="M160.377,184.631c35.921,12.985,32.074,36.309,32.074,59.649c0,2.609,3.848,10.385,3.848,14.278
	c0,2.581-5.131,16.843-7.696,20.74c0,0-3.85,1.293-5.131,5.19c-2.567,5.188-2.567,14.25-5.131,20.74
	c-2.567,9.083-11.548,24.635-11.548,27.216c0,10.378,7.696,14.278,20.528,18.155c-33.359,6.502-83.396,44.104-80.832,81.701
	c0,24.638,1.283,28.516,1.283,32.412c0,0,0,1.288-2.567,1.288C91.094,466.001,0,446.556,0,428.409v-29.831
	c1.281-18.155,28.223-33.7,43.62-38.895c12.832-5.188,55.17-6.479,55.17-27.238c0-3.876-8.979-15.548-11.544-23.317
	c-3.853-7.8-5.136-16.869-7.7-23.35c-1.283-3.9-6.415-6.481-7.698-9.088c-3.848-6.481-6.417-16.838-6.417-19.447
	c0-7.774,6.417-3.874,6.417-9.06c0-2.609-2.567-15.574-2.567-19.452c0-36.302,21.813-53.168,55.17-53.168
	C135.999,175.564,151.393,182.05,160.377,184.631z M347.699,136.676c3.848,2.581,11.546,2.581,16.68,6.479
	c32.074,25.935,24.375,42.795,24.375,71.302v10.378c1.283,1.295,3.85,1.295,3.85,2.59c1.283,1.307,1.283,2.6,1.283,5.186
	c0,3.893-2.567,18.155-7.7,27.242c-2.567,3.876-8.982,5.186-10.263,10.357c-3.85,9.088-3.85,22.05-7.698,32.428
	c-3.848,10.362-15.396,27.226-15.396,31.121c0,49.273,134.718,9.064,134.718,108.899c0,3.898,0,19.464-5.134,28.533
	c-12.832,20.738-110.341,45.376-141.133,45.376h-68c-16.68-2.581-35.926-5.171-52.604-9.067
	c-12.832-2.583-93.661-22.047-93.661-45.378v-35.009c-1.283-15.574,19.244-38.895,35.924-45.395
	c11.546-5.176,26.945-10.359,39.774-14.259c19.247-6.481,59.018-7.776,59.018-35.014c0-2.581-16.677-29.807-21.811-44.076
	c-2.567-5.195-2.567-12.969-5.131-18.159c-1.281-2.581-6.415-5.171-8.982-9.071c-5.131-6.474-8.979-18.145-8.979-25.921
	c0-12.964,7.696-3.898,7.696-12.964c0-2.609-1.281-11.669-2.564-42.795c5.131-44.097,44.905-57.064,74.414-57.064
	C313.056,122.396,327.169,127.586,347.699,136.676z M509.36,185.95c12.829,5.186,23.092,15.545,26.942,25.921
	c5.134,12.964,1.283,25.928,2.567,38.895c2.567,2.605,3.848,6.479,3.848,7.793c0,2.581-2.564,11.652-5.131,16.843
	c-1.283,2.602-5.134,5.19-7.696,9.088c-2.569,2.586-1.286,7.771-2.569,11.674c-1.283,5.167-2.567,11.671-5.131,16.838
	c-3.848,10.374-8.979,14.274-8.979,19.445c0,31.138,98.79,9.09,98.79,79.094c0,2.607,0,14.278-3.848,20.762
	c-6.417,9.062-17.961,11.671-25.661,15.548c-25.661,10.378-51.322,14.274-76.979,16.864c1.283-6.486,2.564-19.445,2.564-22.054
	c0-44.08-23.094-77.78-82.113-92.058c7.696-5.171,19.247-6.481,19.247-18.155c0-3.876-8.984-15.548-11.551-23.317
	c-3.848-7.8-5.134-16.869-7.696-23.35c-1.286-3.9-6.417-6.481-7.7-9.088c-3.848-5.167-5.131-14.257-5.131-18.133v-2.602
	c1.283-2.586,5.131-3.895,5.131-7.771c0-2.609-2.564-15.574-2.564-19.452c0-37.597,21.811-53.168,55.168-53.168
	C483.699,175.564,496.528,182.05,509.36,185.95z"/>
</svg>
