<?xml version="1.0" encoding="utf-8"?>
<!-- Generator: Adobe Illustrator 17.0.0, SVG Export Plug-In . SVG Version: 6.00 Build 0)  -->
<!DOCTYPE svg PUBLIC "-//W3C//DTD SVG 1.1//EN" "http://www.w3.org/Graphics/SVG/1.1/DTD/svg11.dtd">
<svg version="1.1" id="frends" xmlns="http://www.w3.org/2000/svg" xmlns:xlink="http://www.w3.org/1999/xlink" x="0px" y="0px"
	 width="612px" height="612px" viewBox="0 0 612 612" enable-background="new 0 0 612 612" xml:space="preserve">
<path d="M159.511,504.015v-36.133c-1.606-18.376,24.157-45.903,45.094-53.582c14.492-6.099,33.81-12.223,49.914-16.824
	c24.154-7.657,74.074-9.183,74.074-41.327c0-3.053-20.927-35.184-27.372-52.03c-3.224-6.131-3.224-15.31-6.441-21.431
	c-1.609-3.046-8.05-6.108-11.271-10.703c-6.441-7.644-11.271-21.425-11.271-30.605c0-15.291,9.659-4.595,9.659-15.291
	c0-3.084-1.609-13.781-3.224-50.513c6.445-52.052,56.362-67.36,93.395-67.36c20.933,0,38.646,6.127,64.412,16.859
	c4.833,3.043,14.492,3.043,20.936,7.644c40.255,30.605,30.589,50.513,30.589,84.158v12.252c1.612,1.533,4.833,1.533,4.833,3.056
	c1.612,1.552,1.612,3.078,1.612,6.118c0,4.601-3.221,21.431-9.662,32.166c-3.218,4.569-11.277,6.111-12.877,12.22
	c-4.836,10.722-4.836,26.029-9.662,38.278c-4.833,12.229-19.328,32.131-19.328,36.732C442.922,415.852,612,368.401,612,486.23
	c0,2.681-0.159,10.024-1.418,17.786H159.511V504.015z M236.809,293.41c0,0-4.83,1.529-6.441,6.134
	c-3.218,6.118-3.218,16.821-6.438,24.478c-3.221,10.719-14.495,29.076-14.495,32.128c0,12.252,9.662,16.856,25.766,21.425
	c-41.873,7.673-104.663,52.056-101.443,96.435c0,16.307,0.501,24.779,0.946,30.005H0l0.102-69.806
	c1.612-21.441,35.428-39.782,54.75-45.916c16.104-6.124,69.235-7.647,69.235-32.144c0-4.579-11.265-18.354-14.485-27.527
	c-4.833-9.202-6.445-19.905-9.662-27.562c-1.612-4.598-8.05-7.65-9.665-10.722c-4.826-7.65-8.05-19.87-8.05-22.955
	c0-9.18,8.05-4.566,8.05-10.7c0-3.075-3.211-18.382-3.211-22.948c0-42.853,27.368-62.762,69.232-62.762
	c14.495,0,33.813,7.654,45.097,10.703c45.075,15.33,40.255,42.85,40.255,70.406c0,3.078,4.82,12.258,4.82,16.853
	C246.465,271.985,240.027,288.809,236.809,293.41z"/>
</svg>
