<?xml version="1.0" encoding="utf-8"?>
<!-- Generator: Adobe Illustrator 17.0.0, SVG Export Plug-In . SVG Version: 6.00 Build 0)  -->
<!DOCTYPE svg PUBLIC "-//W3C//DTD SVG 1.1//EN" "http://www.w3.org/Graphics/SVG/1.1/DTD/svg11.dtd">
<svg version="1.1" id="Info" xmlns="http://www.w3.org/2000/svg" xmlns:xlink="http://www.w3.org/1999/xlink" x="0px" y="0px"
	 width="612px" height="612px" viewBox="0 0 612 612" enable-background="new 0 0 612 612" xml:space="preserve">
<path d="M311.783,0c48.908,0,88.58,35.646,88.58,79.599c0,43.975-39.672,79.612-88.58,79.612c-48.925,0-88.598-35.637-88.598-79.612
	C223.181,35.646,262.858,0,311.783,0z M463.943,597.591c0,7.957-7.174,14.409-16.011,14.409h-51.525H227.133h-51.486
	c-8.837,0-16.006-6.452-16.006-14.409V568.06c0-7.953,7.169-14.396,16.006-14.396h51.486v-280.11h-53.066
	c-8.841,0-16.015-6.443-16.015-14.404v-29.566c0-7.953,7.174-14.396,16.015-14.396h53.066H380.4h0.521
	c8.824,0,16.006,6.443,16.006,14.396v324.081h51.009c8.833,0,16.011,6.443,16.011,14.396v29.531h-0.004V597.591z"/>
</svg>
