<?xml version="1.0" encoding="utf-8"?>
<!-- Generator: Adobe Illustrator 17.0.0, SVG Export Plug-In . SVG Version: 6.00 Build 0)  -->
<!DOCTYPE svg PUBLIC "-//W3C//DTD SVG 1.1//EN" "http://www.w3.org/Graphics/SVG/1.1/DTD/svg11.dtd">
<svg version="1.1" id="storinka" xmlns="http://www.w3.org/2000/svg" xmlns:xlink="http://www.w3.org/1999/xlink" x="0px" y="0px"
	 width="612px" height="612px" viewBox="0 0 612 612" enable-background="new 0 0 612 612" xml:space="preserve">
<path d="M459.592,459.01H157.409v25.503h302.184L459.592,459.01 M459.592,408.004H157.409V433.5h302.184L459.592,408.004
	 M308.501,127.505c-28.774,0-49.71,23.068-50.358,50.988c0.648,22.6,7.193,39.941,25.186,51.017
	c-14.07,19.225-41.536,27.891-50.376,50.988c-18.637,20.197-18.637,50.527-25.186,76.506h201.464
	c-6.545-25.979-14.383-53.413-25.186-76.506c-15.367-15.882-36.299-28.886-50.358-50.988c19.289-6.754,24.523-28.417,25.19-51.017
	C358.21,154.91,339.9,127.505,308.501,127.505 M107.051,561.005V51.006h402.917v509.998H107.051 M560.326,0H56.679v612h503.648V0"/>
</svg>
