<?xml version="1.0" encoding="utf-8"?>
<!-- Generator: Adobe Illustrator 17.0.0, SVG Export Plug-In . SVG Version: 6.00 Build 0)  -->
<!DOCTYPE svg PUBLIC "-//W3C//DTD SVG 1.1//EN" "http://www.w3.org/Graphics/SVG/1.1/DTD/svg11.dtd">
<svg version="1.1" id="sobitie" xmlns="http://www.w3.org/2000/svg" xmlns:xlink="http://www.w3.org/1999/xlink" x="0px" y="0px"
	 width="612px" height="612px" viewBox="0 0 612 612" enable-background="new 0 0 612 612" xml:space="preserve">
<path d="M582.368,81.829h-64.649V11.944C517.719,5.35,512.442,0,505.948,0h-97.215c-6.494,0-11.767,5.35-11.767,11.944V81.83
	H220.393V11.944C220.393,5.35,215.116,0,208.622,0h-97.215C104.909,0,99.64,5.35,99.64,11.944V81.83H34.995
	c-6.498,0-11.771,5.354-11.771,11.944V600.05c0,6.593,5.273,11.951,11.771,11.951h547.362c6.498,0,11.771-5.358,11.771-11.951
	V93.773C594.135,87.172,588.858,81.829,582.368,81.829z M431.146,34.684h52.4v129.795c0,4.957-3.949,8.954-8.822,8.954h-34.757
	c-4.872,0-8.822-3.997-8.822-8.954L431.146,34.684L431.146,34.684z M133.802,34.684h52.404v129.795c0,4.957-3.953,8.954-8.825,8.954
	h-34.753c-4.872,0-8.825-3.997-8.825-8.954L133.802,34.684L133.802,34.684z M533.2,541.379c0,4.942-3.957,8.958-8.829,8.958H92.985
	c-4.869,0-8.822-4.016-8.822-8.958V262.822c0-4.942,3.953-8.947,8.822-8.947h431.386c4.872,0,8.829,4.005,8.829,8.947L533.2,541.379
	L533.2,541.379z M144.775,286.937h82.737v80.439h-82.737V286.937z M267.734,286.937h81.587v80.439h-81.587V286.937z
	 M390.689,286.937h81.59v80.439h-81.59V286.937z M144.775,407.598h82.737v82.737h-82.737V407.598z M267.734,407.598h81.587v82.737
	h-81.587V407.598z"/>
</svg>
