<svg id="ikona" xmlns="http://www.w3.org/2000/svg" width="197.312" height="227" viewBox="0 0 197.312 227">
  <metadata><?xpacket begin="﻿" id="W5M0MpCehiHzreSzNTczkc9d"?>
<x:xmpmeta xmlns:x="adobe:ns:meta/" x:xmptk="Adobe XMP Core 5.6-c138 79.159824, 2016/09/14-01:09:01        ">
   <rdf:RDF xmlns:rdf="http://www.w3.org/1999/02/22-rdf-syntax-ns#">
      <rdf:Description rdf:about=""/>
   </rdf:RDF>
</x:xmpmeta>
                                                                                                    
                                                                                                    
                                                                                                    
                                                                                                    
                                                                                                    
                                                                                                    
                                                                                                    
                                                                                                    
                                                                                                    
                                                                                                    
                                                                                                    
                                                                                                    
                                                                                                    
                                                                                                    
                                                                                                    
                                                                                                    
                                                                                                    
                                                                                                    
                                                                                                    
                                                                                                    
                           
<?xpacket end="w"?></metadata>
<defs>
    <style>
      .cls-1 {
        fill: #2296ed;
      }

      .cls-1, .cls-2 {
        fill-rule: evenodd;
      }

      .cls-2 {
        fill: #fff;
      }
    </style>
  </defs>
  <path id="bg" class="cls-1" d="M297.3,867.941L198.65,907.988,100,867.941h0V681H297.3V867.941h0Z" transform="translate(-100 -681)"/>
  <path id="e" class="cls-2" d="M250.529,819.16c-11.452,4.659-23.1,6.988-33,6.988-14.945,0-26.59-4.27-33.578-11.063a36.477,36.477,0,0,1-10.675-23.291h51.629V766.95H173.863a33,33,0,0,1,10.092-19.409c5.823-5.435,15.528-10.287,30.861-10.287a61.246,61.246,0,0,1,33.384,9.51l3.687-27.755a105.614,105.614,0,0,0-40.177-7.569c-27.949,0-44.447,8.54-53.763,16.3-13.392,11.258-22.9,30.279-22.9,54.152,0,24.455,9.9,41.535,20.38,51.434,17.468,16.3,40.371,18.633,58.227,18.633,13.781,0,23.68-1.165,38.042-5.629Z" transform="translate(-100 -681)"/>
</svg>
