<?xml version="1.0" encoding="utf-8"?>
<!-- Generator: Adobe Illustrator 21.1.0, SVG Export Plug-In . SVG Version: 6.00 Build 0)  -->
<svg version="1.1" id="Play" xmlns="http://www.w3.org/2000/svg" xmlns:xlink="http://www.w3.org/1999/xlink" x="0px" y="0px"
	 viewBox="0 0 512 512" style="enable-background:new 0 0 512 512;" xml:space="preserve">
<style type="text/css">
	.st0{fill:#231F20;}
</style>
<path d="M412,24.1v206.8c-13.9-4.4-28.7-6.8-44-6.8c-79.5,0-144,64.5-144,144c0,8,0.7,15.8,1.9,23.5H103c-22.1,0-40-17.9-40-40v-191
	c0-22.1,17.9-40,40-40h171.1v0.4L394.9,17.1C401.2,10.8,412,15.2,412,24.1z"/>
<path class="st0" d="M503.6,481.5L482.1,503c-3.9,3.9-11.2,2.6-16.6-2.8L296.2,331c-5.4-5.4-6.6-12.8-2.8-16.6l21.5-21.5
	c3.9-3.9,11.2-2.6,16.6,2.8l169.2,169.2C506.3,470.3,507.6,477.8,503.6,481.5z"/>
<path class="st0" d="M314.9,503.1l-21.5-21.5c-3.9-3.9-2.6-11.2,2.8-16.6l169.2-169.2c5.4-5.4,12.8-6.6,16.6-2.8l21.5,21.5
	c3.9,3.9,2.6,11.2-2.8,16.6L331.5,500.3C326.2,505.8,318.8,507,314.9,503.1z"/>
</svg>
